<svg width="52" height="56" viewBox="0 0 52 56" fill="none" xmlns="http://www.w3.org/2000/svg">
<path fill-rule="evenodd" clip-rule="evenodd" d="M26 56C40.3594 56 52 43.464 52 28C52 12.536 40.3594 0 26 0C11.6406 0 0 12.536 0 28C0 43.464 11.6406 56 26 56ZM24 50C35.0457 50 44 40.1503 44 28C44 15.8497 35.0457 6 24 6C12.9543 6 4 15.8497 4 28C4 40.1503 12.9543 50 24 50Z" fill="#4353FF" fill-opacity="0.6"/>
<path fill-rule="evenodd" clip-rule="evenodd" d="M24 48C33.9411 48 42 39.0457 42 28C42 16.9543 33.9411 8 24 8C14.0589 8 6 16.9543 6 28C6 39.0457 14.0589 48 24 48ZM22 40C27.5228 40 32 34.6274 32 28C32 21.3726 27.5228 16 22 16C16.4772 16 12 21.3726 12 28C12 34.6274 16.4772 40 22 40Z" fill="#4353FF"/>
<path d="M30 28C30 33.5228 26.4183 38 22 38C17.5817 38 14 33.5228 14 28C14 22.4772 17.5817 18 22 18C26.4183 18 30 22.4772 30 28Z" fill="#4353FF" fill-opacity="0.3"/>
</svg>
