<svg width="52" height="49" viewBox="0 0 52 49" fill="none" xmlns="http://www.w3.org/2000/svg">
<path d="M45.1745 31L35.7832 13H50.0006C51.1052 13 52.0006 13.8954 52.0006 15V29C52.0006 30.1046 51.1052 31 50.0006 31H45.1745Z" fill="#4353FF"/>
<path d="M15.8984 21.2796L27.0009 0L51.0009 46H24.1813C26.5565 43.3462 28.0008 39.8418 28.0008 36C28.0008 28.707 22.7961 22.6296 15.8984 21.2796Z" fill="#4353FF" fill-opacity="0.3"/>
<path d="M26 36C26 43.1797 20.1797 49 13 49C5.8203 49 0 43.1797 0 36C0 28.8203 5.8203 23 13 23C20.1797 23 26 28.8203 26 36Z" fill="#4353FF" fill-opacity="0.6"/>
</svg>
