<svg width="56" height="48" viewBox="0 0 56 48" fill="none" xmlns="http://www.w3.org/2000/svg">
<path d="M15.0242 38C14.3609 36.1233 14 34.1038 14 32V30C14 21.0317 20.5588 13.5952 29.1415 12.2257C26.9404 9.64008 23.6617 8 20 8H12C5.37258 8 0 13.3726 0 20V38H15.0242Z" fill="#4353FF" fill-opacity="0.6"/>
<path d="M40 0C34.4772 0 30 4.47715 30 10V12.1099C30.6567 12.0373 31.324 12 32 12H36C43.8373 12 50.5047 17.0088 52.9758 24H56V10C56 4.47715 51.5228 0 46 0H40Z" fill="#4353FF"/>
<path d="M16 30C16 21.1634 23.1634 14 32 14H36C44.8366 14 52 21.1634 52 30V48H32C23.1634 48 16 40.8366 16 32V30Z" fill="#4353FF" fill-opacity="0.3"/>
</svg>
