<svg width="55" height="45" viewBox="0 0 55 45" fill="none" xmlns="http://www.w3.org/2000/svg">
<path d="M48 24C48 28.1534 46.5924 32.2135 43.9553 35.667C41.3181 39.1204 37.5698 41.812 33.1844 43.4015C28.799 44.9909 23.9734 45.4068 19.3178 44.5965C14.6623 43.7862 10.3859 41.7861 7.02945 38.8492C3.67299 35.9123 1.38721 32.1705 0.461164 28.0969C-0.464881 24.0233 0.0103989 19.8009 1.8269 15.9636C3.64341 12.1264 6.71955 8.84665 10.6663 6.53914C14.6131 4.23163 19.2533 3 24 3V24H48Z" fill="#4353FF" fill-opacity="0.3"/>
<path d="M40 5C36.5 1.5 30.8893 0.0391313 26 0L26 22L40 5Z" fill="#4353FF"/>
<path d="M55 22C55 19 53.7428 14.2604 52 11.5C50.2572 8.73958 46.8206 5.46823 44 3.5L28 22H55Z" fill="#4353FF" fill-opacity="0.6"/>
</svg>
