<svg width="56" height="52" viewBox="0 0 56 52" fill="none" xmlns="http://www.w3.org/2000/svg">
<path d="M41 43C41 47.9706 36.9706 52 32 52C27.0294 52 23 47.9706 23 43C23 38.0294 27.0294 34 32 34C36.9706 34 41 38.0294 41 43Z" fill="#4353FF"/>
<path d="M31 10.5C31 16.299 26.299 21 20.5 21C14.701 21 10 16.299 10 10.5C10 4.70101 14.701 0 20.5 0C26.299 0 31 4.70101 31 10.5Z" fill="#4353FF" fill-opacity="0.3"/>
<path d="M1.03573 34.2821C0.46396 32.1482 1.73029 29.9549 3.86415 29.3831L50.2286 16.9598C52.3625 16.388 54.5558 17.6544 55.1276 19.7882C55.6993 21.9221 54.433 24.1154 52.2991 24.6872L5.93471 37.1105C3.80084 37.6823 1.60749 36.416 1.03573 34.2821Z" fill="#4353FF" fill-opacity="0.6"/>
</svg>
