<svg width="56" height="50" viewBox="0 0 56 50" fill="none" xmlns="http://www.w3.org/2000/svg">
<path d="M12.0242 10C12.0162 10 12.0081 10 12 10C5.37258 10 0 15.3726 0 22C0 27.5915 3.82432 32.2898 9 33.6219V46C9 47.1046 9.89543 48 11 48H13C14.1046 48 15 47.1046 15 46V33.6219C16.6908 33.1868 18.2373 32.3924 19.5535 31.3249C14.4205 28.1541 11 22.4765 11 16C11 13.8962 11.3609 11.8767 12.0242 10Z" fill="#4353FF"/>
<path d="M47.0006 16.0493C46.9825 22.7773 43.2732 28.6374 37.791 31.7113C39.0423 33.5066 40.8675 34.8721 43.0007 35.5421V45.9999C43.0007 47.1045 43.8961 47.9999 45.0007 47.9999H47.0007C48.1052 47.9999 49.0007 47.1045 49.0007 45.9999V35.5421C53.0578 34.2679 56.0007 30.4776 56.0007 25.9999C56.0007 20.8146 52.054 16.551 47.0006 16.0493Z" fill="#4353FF" fill-opacity="0.6"/>
<path d="M32 31.7192C39.4026 30.315 45 23.8112 45 16C45 7.16344 37.8366 0 29 0C20.1634 0 13 7.16344 13 16C13 23.8112 18.5974 30.315 26 31.7192V48C26 49.1046 26.8954 50 28 50H30C31.1046 50 32 49.1046 32 48V31.7192Z" fill="#4353FF" fill-opacity="0.3"/>
</svg>
